<svg width="35" height="35" viewBox="0 0 35 35" fill="none" xmlns="http://www.w3.org/2000/svg">
<circle cx="17.5" cy="17.5" r="17.5" fill="#1B3358"/>
<path d="M13.8679 9.90578C13.8679 7.66049 15.5849 5.94351 17.8302 5.94351C20.0755 5.94351 21.7925 7.66049 21.7925 9.90578V12.5473H24.434V9.90578C24.434 6.20766 21.5283 3.302 17.8302 3.302C14.1321 3.302 11.2264 6.20766 11.2264 9.90578V12.5473H13.8679V9.90578ZM19.8113 19.8114C19.8113 18.7548 18.8868 17.8303 17.8302 17.8303C16.7736 17.8303 15.8491 18.7548 15.8491 19.8114C15.8491 20.3397 16.1132 20.868 16.5094 21.2643V23.1133C16.5094 23.9058 17.0377 24.4341 17.8302 24.4341C18.6226 24.4341 19.1509 23.9058 19.1509 23.1133V21.2643C19.5472 20.868 19.8113 20.3397 19.8113 19.8114Z" fill="white"/>
<path d="M24.434 12.5471H11.2264C8.98113 12.5471 7.26415 14.2641 7.26415 16.5094V25.7547C7.26415 27.9999 8.98113 29.7169 11.2264 29.7169H24.434C26.6792 29.7169 28.3962 27.9999 28.3962 25.7547V16.5094C28.3962 14.2641 26.6792 12.5471 24.434 12.5471ZM19.1509 21.2641V23.1132C19.1509 23.9056 18.6226 24.4339 17.8302 24.4339C17.0377 24.4339 16.5094 23.9056 16.5094 23.1132V21.2641C16.1132 20.8679 15.8491 20.3396 15.8491 19.8113C15.8491 18.7547 16.7736 17.8301 17.8302 17.8301C18.8868 17.8301 19.8113 18.7547 19.8113 19.8113C19.8113 20.3396 19.5472 20.8679 19.1509 21.2641Z" fill="#586880"/>
</svg>
