<svg width="912" height="606" viewBox="0 0 912 606" fill="none" xmlns="http://www.w3.org/2000/svg">
<path d="M236 183.866C58.4 100.22 4 24.9256 0 0H910V143.403C863.167 118.801 741.4 70.0505 629 96.4651C488.5 129.483 458 288.424 236 183.866Z" fill="#00A8E8"/>
<path d="M237 162.877C59.4 88.7795 5 22.0802 1 0H911V127.033C864.167 105.239 742.4 62.0539 630 85.4531C489.5 114.702 459 255.499 237 162.877Z" fill="#1B3358"/>
<path d="M780.428 559.924C699.62 579.911 215.784 603.039 2 605.445L911 606V460C886.153 477.024 863.474 539.384 780.428 559.924Z" fill="#00A8E8"/>
<path d="M781 564C700.236 582.002 216.667 602.833 3 605L911.5 605.5V474C886.667 489.333 864 545.5 781 564Z" fill="#1B3358"/>
</svg>
